<!DOCTYPE svg PUBLIC "-//W3C//DTD SVG 1.1//EN" "http://www.w3.org/Graphics/SVG/1.1/DTD/svg11.dtd">
<!-- Uploaded to: SVG Repo, www.svgrepo.com, Transformed by: SVG Repo Mixer Tools -->
<svg width="800px" height="800px" viewBox="0 0 1024 1024" class="icon" version="1.1" xmlns="http://www.w3.org/2000/svg" fill="#000000">
<g id="SVGRepo_bgCarrier" stroke-width="0"/>
<g id="SVGRepo_tracerCarrier" stroke-linecap="round" stroke-linejoin="round"/>
<g id="SVGRepo_iconCarrier">
<path d="M691.776 917.824c0 8.704-7.04 15.744-15.68 15.744H357.504a15.68 15.68 0 0 1-15.808-15.744V119.424c0-8.64 6.976-15.68 15.808-15.68h318.528c8.64 0 15.68 7.04 15.68 15.68v798.4z" fill="#000000"/>
<path d="M514.688 267.264m-102.336 0a102.336 102.336 0 1 0 204.672 0 102.336 102.336 0 1 0-204.672 0Z" fill="#ffffff"/>
<path d="M514.688 518.656m-102.272 0a102.272 102.272 0 1 0 204.544 0 102.272 102.272 0 1 0-204.544 0Z" fill="#ffffff"/>
<path d="M514.688 769.984m-102.272 0a102.272 102.272 0 1 0 204.544 0 102.272 102.272 0 1 0-204.544 0Z" fill="#6CAA3D"/>
<path d="M868.928 146.176h-177.152v200.512h5.696l171.456-134.784zM868.928 409.6h-177.152v200.512h5.696l171.456-134.72zM868.928 676.992h-177.152v200.576h5.696l171.456-134.72zM164.48 146.176h177.216v200.512H336L164.48 211.904zM164.48 409.6h177.216v200.512H336L164.48 475.392zM164.48 676.992h177.216v200.576H336l-171.52-134.72z" fill="#000000"/>
</g>
</svg>